name analog
datacolumns 19
datarows 53
range 0.4580000000000002 0.4840000000000002
endheader
time	ground_force_vx	ground_force_vy	ground_force_vz	ground_force_px	ground_force_py	ground_force_pz	l_ground_force_vx	l_ground_force_vy	l_ground_force_vz	l_ground_force_px	l_ground_force_py	l_ground_force_pz	ground_torque_x	ground_torque_y	ground_torque_z	l_ground_torque_x	l_ground_torque_y	l_ground_torque_z
0.4580000000000002	-0.0	-0.0	-0.0	-1.0057322978973389	3.1574058532714844	-748.741455078125	-0.0	-0.0	-0.0	-0.0	-0.0	-0.0	-0.0	-0.0	-0.0	-0.0	-0.0	-0.0
0.4585000000000002	-0.0	-0.0	-0.0	-0.4324642717838287	2.8037707805633545	-750.2079467773438	-0.0	-0.0	-0.0	-0.0	-0.0	-0.0	-0.0	-0.0	-0.0	-0.0	-0.0	-0.0
0.4590000000000002	-0.0	-0.0	-0.0	0.7651609182357788	2.444220542907715	-751.4857788085938	-0.0	-0.0	-0.0	-0.0	-0.0	-0.0	-0.0	-0.0	-0.0	-0.0	-0.0	-0.0
0.4595000000000002	-0.0	-0.0	-0.0	1.3897078037261963	1.5528433322906494	-754.392333984375	-0.0	-0.0	-0.0	-0.0	-0.0	-0.0	-0.0	-0.0	-0.0	-0.0	-0.0	-0.0
0.4600000000000002	-0.0	-0.0	-0.0	2.004690408706665	0.1031375303864479	-756.102783203125	-0.0	-0.0	-0.0	-0.0	-0.0	-0.0	-0.0	-0.0	-0.0	-0.0	-0.0	-0.0
0.4605000000000002	-0.0	-0.0	-0.0	2.587104797363281	-1.3511178493499756	-759.4292602539062	-0.0	-0.0	-0.0	-0.0	-0.0	-0.0	-0.0	-0.0	-0.0	-0.0	-0.0	-0.0
0.4610000000000002	-0.0	-0.0	-0.0	3.652112483978272	-3.429879903793335	-763.4834594726562	-0.0	-0.0	-0.0	-0.0	-0.0	-0.0	-0.0	-0.0	-0.0	-0.0	-0.0	-0.0
0.4615000000000002	-0.0	-0.0	-0.0	5.4273762702941895	-5.184015274047852	-769.43115234375	-0.0	-0.0	-0.0	-0.0	-0.0	-0.0	-0.0	-0.0	-0.0	-0.0	-0.0	-0.0
0.4620000000000002	-0.0	-0.0	-0.0	6.593484401702881	-6.350936412811279	-776.231689453125	-0.0	-0.0	-0.0	-0.0	-0.0	-0.0	-0.0	-0.0	-0.0	-0.0	-0.0	-0.0
0.4625000000000002	-0.0	-0.0	-0.0	7.51618480682373	-7.561361789703369	-784.8548583984375	-0.0	-0.0	-0.0	-0.0	-0.0	-0.0	-0.0	-0.0	-0.0	-0.0	-0.0	-0.0
0.4630000000000002	-0.0	-0.0	-0.0	8.846731185913086	-9.098672866821287	-792.0355224609375	-0.0	-0.0	-0.0	-0.0	-0.0	-0.0	-0.0	-0.0	-0.0	-0.0	-0.0	-0.0
0.4635000000000002	-0.0	-0.0	-0.0	9.5906343460083	-11.624006271362305	-801.8652954101562	-0.0	-0.0	-0.0	-0.0	-0.0	-0.0	-0.0	-0.0	-0.0	-0.0	-0.0	-0.0
0.4640000000000002	-0.0	-0.0	-0.0	8.838532447814941	-12.19571304321289	-812.2537841796875	-0.0	-0.0	-0.0	-0.0	-0.0	-0.0	-0.0	-0.0	-0.0	-0.0	-0.0	-0.0
0.4645000000000002	-0.0	-0.0	-0.0	8.668739318847656	-12.60429859161377	-820.43701171875	-0.0	-0.0	-0.0	-0.0	-0.0	-0.0	-0.0	-0.0	-0.0	-0.0	-0.0	-0.0
0.4650000000000002	-0.0	-0.0	-0.0	8.312026023864746	-12.34282112121582	-827.6702880859375	-0.0	-0.0	-0.0	-0.0	-0.0	-0.0	-0.0	-0.0	-0.0	-0.0	-0.0	-0.0
0.4655000000000002	-0.0	-0.0	-0.0	6.942819118499756	-12.063776969909668	-833.7960815429688	-0.0	-0.0	-0.0	-0.0	-0.0	-0.0	-0.0	-0.0	-0.0	-0.0	-0.0	-0.0
0.4660000000000002	-0.0	-0.0	-0.0	6.564847946166992	-10.90538215637207	-836.454833984375	-0.0	-0.0	-0.0	-0.0	-0.0	-0.0	-0.0	-0.0	-0.0	-0.0	-0.0	-0.0
0.4665000000000002	-0.0	-0.0	-0.0	5.683781623840332	-9.856842041015623	-836.330078125	-0.0	-0.0	-0.0	-0.0	-0.0	-0.0	-0.0	-0.0	-0.0	-0.0	-0.0	-0.0
0.4670000000000002	-0.0	-0.0	-0.0	5.0484113693237305	-8.515448570251465	-835.8499145507812	-0.0	-0.0	-0.0	-0.0	-0.0	-0.0	-0.0	-0.0	-0.0	-0.0	-0.0	-0.0
0.4675000000000002	-0.0	-0.0	-0.0	4.140198230743408	-6.915689468383789	-831.6747436523438	-0.0	-0.0	-0.0	-0.0	-0.0	-0.0	-0.0	-0.0	-0.0	-0.0	-0.0	-0.0
0.4680000000000002	-0.0	-0.0	-0.0	3.697911024093628	-5.651632785797119	-828.4955444335938	-0.0	-0.0	-0.0	-0.0	-0.0	-0.0	-0.0	-0.0	-0.0	-0.0	-0.0	-0.0
0.4685000000000002	-0.0	-0.0	-0.0	3.9581923484802246	-4.205579280853272	-821.7057495117188	-0.0	-0.0	-0.0	-0.0	-0.0	-0.0	-0.0	-0.0	-0.0	-0.0	-0.0	-0.0
0.4690000000000002	-0.0	-0.0	-0.0	3.247886180877685	-2.5982460975646973	-818.52734375	-0.0	-0.0	-0.0	-0.0	-0.0	-0.0	-0.0	-0.0	-0.0	-0.0	-0.0	-0.0
0.4695000000000002	-0.0	-0.0	-0.0	2.4086837768554688	-1.9246691465377808	-815.3489990234375	-0.0	-0.0	-0.0	-0.0	-0.0	-0.0	-0.0	-0.0	-0.0	-0.0	-0.0	-0.0
0.4700000000000002	-0.0	-0.0	-0.0	1.7287912368774414	-0.5155381560325623	-811.4550170898438	-0.0	-0.0	-0.0	-0.0	-0.0	-0.0	-0.0	-0.0	-0.0	-0.0	-0.0	-0.0
0.4705000000000002	-0.0	-0.0	-0.0	1.2128541469573977	-0.1251910179853439	-808.07568359375	-0.0	-0.0	-0.0	-0.0	-0.0	-0.0	-0.0	-0.0	-0.0	-0.0	-0.0	-0.0
0.4710000000000002	-0.0	-0.0	-0.0	0.4288732707500458	0.9444511532783508	-807.01611328125	-0.0	-0.0	-0.0	-0.0	-0.0	-0.0	-0.0	-0.0	-0.0	-0.0	-0.0	-0.0
0.4715000000000002	-0.0	-0.0	-0.0	-0.3035741448402405	1.6030564308166504	-803.552978515625	-0.0	-0.0	-0.0	-0.0	-0.0	-0.0	-0.0	-0.0	-0.0	-0.0	-0.0	-0.0
0.4720000000000002	-0.0	-0.0	-0.0	-0.6593817472457886	2.0674376487731934	-800.5206909179688	-0.0	-0.0	-0.0	-0.0	-0.0	-0.0	-0.0	-0.0	-0.0	-0.0	-0.0	-0.0
0.4725000000000002	-0.0	-0.0	-0.0	-0.9108799695968628	2.6557364463806152	-798.2587280273438	-0.0	-0.0	-0.0	-0.0	-0.0	-0.0	-0.0	-0.0	-0.0	-0.0	-0.0	-0.0
0.4730000000000002	-0.0	-0.0	-0.0	-0.8743672370910645	2.852433204650879	-795.6441650390625	-0.0	-0.0	-0.0	-0.0	-0.0	-0.0	-0.0	-0.0	-0.0	-0.0	-0.0	-0.0
0.4735000000000002	-0.0	-0.0	-0.0	-1.3738181591033936	2.905674695968628	-793.948974609375	-0.0	-0.0	-0.0	-0.0	-0.0	-0.0	-0.0	-0.0	-0.0	-0.0	-0.0	-0.0
0.4740000000000002	-0.0	-0.0	-0.0	-1.5346181392669678	2.5487351417541504	-793.5953369140625	-0.0	-0.0	-0.0	-0.0	-0.0	-0.0	-0.0	-0.0	-0.0	-0.0	-0.0	-0.0
0.4745000000000002	-0.0	-0.0	-0.0	-2.3905155658721924	2.10282564163208	-793.6705322265625	-0.0	-0.0	-0.0	-0.0	-0.0	-0.0	-0.0	-0.0	-0.0	-0.0	-0.0	-0.0
0.4750000000000002	-0.0	-0.0	-0.0	-3.068601131439209	1.837527871131897	-791.3311767578125	-0.0	-0.0	-0.0	-0.0	-0.0	-0.0	-0.0	-0.0	-0.0	-0.0	-0.0	-0.0
0.4755000000000002	-0.0	-0.0	-0.0	-3.960632801055908	1.336956024169922	-792.0363159179688	-0.0	-0.0	-0.0	-0.0	-0.0	-0.0	-0.0	-0.0	-0.0	-0.0	-0.0	-0.0
0.4760000000000002	-0.0	-0.0	-0.0	-4.674252510070801	0.6944613456726074	-789.7764892578125	-0.0	-0.0	-0.0	-0.0	-0.0	-0.0	-0.0	-0.0	-0.0	-0.0	-0.0	-0.0
0.4765000000000002	-0.0	-0.0	-0.0	-4.854874134063721	0.1595242321491241	-788.223388671875	-0.0	-0.0	-0.0	-0.0	-0.0	-0.0	-0.0	-0.0	-0.0	-0.0	-0.0	-0.0
0.4770000000000002	-0.0	-0.0	-0.0	-4.709274291992188	-0.6993756294250488	-786.2429809570312	-0.0	-0.0	-0.0	-0.0	-0.0	-0.0	-0.0	-0.0	-0.0	-0.0	-0.0	-0.0
0.4775000000000002	-0.0	-0.0	-0.0	-5.123067378997803	-1.42608642578125	-785.75	-0.0	-0.0	-0.0	-0.0	-0.0	-0.0	-0.0	-0.0	-0.0	-0.0	-0.0	-0.0
0.4780000000000002	-0.0	-0.0	-0.0	-5.049985885620117	-1.798423409461975	-785.4094848632812	-0.0	-0.0	-0.0	-0.0	-0.0	-0.0	-0.0	-0.0	-0.0	-0.0	-0.0	-0.0
0.4785000000000002	-0.0	-0.0	-0.0	-4.867952346801758	-2.5461905002593994	-786.7465209960938	-0.0	-0.0	-0.0	-0.0	-0.0	-0.0	-0.0	-0.0	-0.0	-0.0	-0.0	-0.0
0.4790000000000002	-0.0	-0.0	-0.0	-5.205016613006592	-3.030433654785156	-788.58984375	-0.0	-0.0	-0.0	-0.0	-0.0	-0.0	-0.0	-0.0	-0.0	-0.0	-0.0	-0.0
0.4795000000000002	-0.0	-0.0	-0.0	-5.263420104980469	-3.084797143936157	-787.0402221679688	-0.0	-0.0	-0.0	-0.0	-0.0	-0.0	-0.0	-0.0	-0.0	-0.0	-0.0	-0.0
0.4800000000000002	-0.0	-0.0	-0.0	-5.015532493591309	-2.871899366378784	-787.0036010742188	-0.0	-0.0	-0.0	-0.0	-0.0	-0.0	-0.0	-0.0	-0.0	-0.0	-0.0	-0.0
0.4805000000000002	-0.0	-0.0	-0.0	-5.114512920379639	-3.0503146648406982	-786.2166137695312	-0.0	-0.0	-0.0	-0.0	-0.0	-0.0	-0.0	-0.0	-0.0	-0.0	-0.0	-0.0
0.4810000000000002	-0.0	-0.0	-0.0	-5.381757736206055	-2.777592897415161	-785.1983032226562	-0.0	-0.0	-0.0	-0.0	-0.0	-0.0	-0.0	-0.0	-0.0	-0.0	-0.0	-0.0
0.4815000000000002	-0.0	-0.0	-0.0	-4.969765663146973	-2.2224221229553223	-784.74267578125	-0.0	-0.0	-0.0	-0.0	-0.0	-0.0	-0.0	-0.0	-0.0	-0.0	-0.0	-0.0
0.4820000000000002	-0.0	-0.0	-0.0	-5.022335052490234	-1.6590678691864014	-785.6331787109375	-0.0	-0.0	-0.0	-0.0	-0.0	-0.0	-0.0	-0.0	-0.0	-0.0	-0.0	-0.0
0.4825000000000002	-0.0	-0.0	-0.0	-4.618488311767578	-0.9043731093406676	-785.5272827148438	-0.0	-0.0	-0.0	-0.0	-0.0	-0.0	-0.0	-0.0	-0.0	-0.0	-0.0	-0.0
0.4830000000000002	-0.0	-0.0	-0.0	-4.769383430480957	-0.2194499671459198	-784.086181640625	-0.0	-0.0	-0.0	-0.0	-0.0	-0.0	-0.0	-0.0	-0.0	-0.0	-0.0	-0.0
0.4835000000000002	-0.0	-0.0	-0.0	-4.206359386444092	0.9462398290634156	-783.05322265625	-0.0	-0.0	-0.0	-0.0	-0.0	-0.0	-0.0	-0.0	-0.0	-0.0	-0.0	-0.0
0.4840000000000002	-0.0	-0.0	-0.0	-4.103683471679688	1.5626072883605957	-785.607421875	-0.0	-0.0	-0.0	-0.0	-0.0	-0.0	-0.0	-0.0	-0.0	-0.0	-0.0	-0.0
